<mxfile host="app.diagrams.net" modified="2021-10-22T10:03:36.350Z" agent="5.0 (Windows NT 10.0; Win64; x64) AppleWebKit/537.36 (KHTML, like Gecko) Chrome/94.0.4606.81 Safari/537.36" etag="dWgR7QtBPTIFxP_wX3__" version="15.5.8" type="github">
  <diagram id="CyL2g9FgXNqKBjp9rRpD" name="페이지-1">
    <mxGraphModel dx="1662" dy="1931" grid="1" gridSize="10" guides="1" tooltips="1" connect="1" arrows="1" fold="1" page="1" pageScale="1" pageWidth="827" pageHeight="1169" math="0" shadow="0">
      <root>
        <mxCell id="0" />
        <mxCell id="1" parent="0" />
        <mxCell id="jquihusGkQK9FSzFausJ-1" value="" style="rounded=1;whiteSpace=wrap;html=1;fillColor=#e1d5e7;strokeColor=#9673a6;opacity=70;" parent="1" vertex="1">
          <mxGeometry x="40" y="200" width="1430" height="1190" as="geometry" />
        </mxCell>
        <mxCell id="jquihusGkQK9FSzFausJ-2" value="고객" style="shape=umlActor;verticalLabelPosition=bottom;verticalAlign=top;html=1;outlineConnect=0;" parent="1" vertex="1">
          <mxGeometry x="1580" y="310" width="30" height="60" as="geometry" />
        </mxCell>
        <mxCell id="jquihusGkQK9FSzFausJ-3" value="" style="group" parent="1" vertex="1" connectable="0">
          <mxGeometry x="1560" y="260" width="70" height="40" as="geometry" />
        </mxCell>
        <mxCell id="jquihusGkQK9FSzFausJ-4" value="&lt;b&gt;jsp 표시&lt;br&gt;&lt;/b&gt;" style="rounded=1;whiteSpace=wrap;html=1;fillColor=#dae8fc;strokeColor=#6c8ebf;" parent="jquihusGkQK9FSzFausJ-3" vertex="1">
          <mxGeometry width="70" height="20" as="geometry" />
        </mxCell>
        <mxCell id="jquihusGkQK9FSzFausJ-5" value="&lt;b&gt;servlet 표시&lt;br&gt;&lt;/b&gt;" style="rounded=1;whiteSpace=wrap;html=1;fillColor=#f8cecc;strokeColor=#b85450;" parent="jquihusGkQK9FSzFausJ-3" vertex="1">
          <mxGeometry y="20" width="70" height="20" as="geometry" />
        </mxCell>
        <mxCell id="jquihusGkQK9FSzFausJ-6" value="" style="group" parent="1" vertex="1" connectable="0">
          <mxGeometry x="1520" y="480" width="150" height="140" as="geometry" />
        </mxCell>
        <mxCell id="jquihusGkQK9FSzFausJ-7" value="메인 페이지&lt;br&gt;&lt;b&gt;index.jsp&lt;/b&gt;" style="rounded=1;whiteSpace=wrap;html=1;fillColor=#dae8fc;strokeColor=#6c8ebf;" parent="jquihusGkQK9FSzFausJ-6" vertex="1">
          <mxGeometry width="150" height="140" as="geometry" />
        </mxCell>
        <mxCell id="jquihusGkQK9FSzFausJ-8" value="&lt;b&gt;header.jsp&lt;/b&gt;" style="rounded=1;whiteSpace=wrap;html=1;fillColor=#ffe6cc;strokeColor=#d79b00;" parent="jquihusGkQK9FSzFausJ-6" vertex="1">
          <mxGeometry width="150" height="38.18181818181818" as="geometry" />
        </mxCell>
        <mxCell id="jquihusGkQK9FSzFausJ-9" value="&lt;b&gt;footer.jsp&lt;/b&gt;" style="rounded=1;whiteSpace=wrap;html=1;fillColor=#d5e8d4;strokeColor=#82b366;" parent="jquihusGkQK9FSzFausJ-6" vertex="1">
          <mxGeometry y="101.81818181818176" width="150" height="38.18181818181818" as="geometry" />
        </mxCell>
        <mxCell id="jquihusGkQK9FSzFausJ-10" value="" style="group" parent="1" vertex="1" connectable="0">
          <mxGeometry x="1280" y="510" width="150" height="140" as="geometry" />
        </mxCell>
        <mxCell id="jquihusGkQK9FSzFausJ-11" value="상품 큰카테고리&lt;br&gt;&lt;b&gt;.jsp&lt;/b&gt;" style="rounded=1;whiteSpace=wrap;html=1;fillColor=#dae8fc;strokeColor=#6c8ebf;" parent="jquihusGkQK9FSzFausJ-10" vertex="1">
          <mxGeometry width="150" height="140" as="geometry" />
        </mxCell>
        <mxCell id="jquihusGkQK9FSzFausJ-12" value="&lt;b&gt;header.jsp&lt;/b&gt;" style="rounded=1;whiteSpace=wrap;html=1;fillColor=#ffe6cc;strokeColor=#d79b00;" parent="jquihusGkQK9FSzFausJ-10" vertex="1">
          <mxGeometry width="150" height="38.18181818181818" as="geometry" />
        </mxCell>
        <mxCell id="jquihusGkQK9FSzFausJ-13" value="&lt;b&gt;footer.jsp&lt;/b&gt;" style="rounded=1;whiteSpace=wrap;html=1;fillColor=#d5e8d4;strokeColor=#82b366;" parent="jquihusGkQK9FSzFausJ-10" vertex="1">
          <mxGeometry y="101.81818181818176" width="150" height="38.18181818181818" as="geometry" />
        </mxCell>
        <mxCell id="jquihusGkQK9FSzFausJ-14" value="큰 카테고리 &amp;gt; 상품 목록 &amp;gt; 상품 상세정보" style="whiteSpace=wrap;html=1;align=left;" parent="1" vertex="1">
          <mxGeometry x="1240" y="40" width="260" height="130" as="geometry" />
        </mxCell>
        <mxCell id="jquihusGkQK9FSzFausJ-15" value="" style="group" parent="1" vertex="1" connectable="0">
          <mxGeometry x="840" y="630" width="150" height="140" as="geometry" />
        </mxCell>
        <mxCell id="jquihusGkQK9FSzFausJ-16" value="상품 목록&lt;br&gt;&lt;b&gt;.jsp&lt;/b&gt;" style="rounded=1;whiteSpace=wrap;html=1;fillColor=#dae8fc;strokeColor=#6c8ebf;" parent="jquihusGkQK9FSzFausJ-15" vertex="1">
          <mxGeometry width="150" height="140" as="geometry" />
        </mxCell>
        <mxCell id="jquihusGkQK9FSzFausJ-17" value="&lt;b&gt;header.jsp&lt;/b&gt;" style="rounded=1;whiteSpace=wrap;html=1;fillColor=#ffe6cc;strokeColor=#d79b00;" parent="jquihusGkQK9FSzFausJ-15" vertex="1">
          <mxGeometry width="150" height="38.18181818181818" as="geometry" />
        </mxCell>
        <mxCell id="jquihusGkQK9FSzFausJ-18" value="&lt;b&gt;footer.jsp&lt;/b&gt;" style="rounded=1;whiteSpace=wrap;html=1;fillColor=#d5e8d4;strokeColor=#82b366;" parent="jquihusGkQK9FSzFausJ-15" vertex="1">
          <mxGeometry y="101.81818181818176" width="150" height="38.18181818181818" as="geometry" />
        </mxCell>
        <mxCell id="jquihusGkQK9FSzFausJ-19" value="" style="group" parent="1" vertex="1" connectable="0">
          <mxGeometry x="610" y="700" width="150" height="140" as="geometry" />
        </mxCell>
        <mxCell id="jquihusGkQK9FSzFausJ-20" value="상품 인기리스트&lt;br&gt;&lt;b&gt;/product/list/popular?.jsp&lt;/b&gt;" style="rounded=1;whiteSpace=wrap;html=1;fillColor=#dae8fc;strokeColor=#6c8ebf;" parent="jquihusGkQK9FSzFausJ-19" vertex="1">
          <mxGeometry width="150" height="140" as="geometry" />
        </mxCell>
        <mxCell id="jquihusGkQK9FSzFausJ-21" value="&lt;b&gt;header.jsp&lt;/b&gt;" style="rounded=1;whiteSpace=wrap;html=1;fillColor=#ffe6cc;strokeColor=#d79b00;" parent="jquihusGkQK9FSzFausJ-19" vertex="1">
          <mxGeometry width="150" height="38.18181818181818" as="geometry" />
        </mxCell>
        <mxCell id="jquihusGkQK9FSzFausJ-22" value="&lt;b&gt;footer.jsp&lt;/b&gt;" style="rounded=1;whiteSpace=wrap;html=1;fillColor=#d5e8d4;strokeColor=#82b366;" parent="jquihusGkQK9FSzFausJ-19" vertex="1">
          <mxGeometry y="101.81818181818176" width="150" height="38.18181818181818" as="geometry" />
        </mxCell>
        <mxCell id="jquihusGkQK9FSzFausJ-23" value="&lt;span&gt;상품 삭제&lt;/span&gt;&lt;br&gt;&lt;b&gt;product/delete.kh&lt;/b&gt;" style="rounded=1;whiteSpace=wrap;html=1;fillColor=#f8cecc;strokeColor=#b85450;" parent="1" vertex="1">
          <mxGeometry x="1040" y="1230" width="120" height="60" as="geometry" />
        </mxCell>
        <mxCell id="jquihusGkQK9FSzFausJ-24" value="" style="group" parent="1" vertex="1" connectable="0">
          <mxGeometry x="1020" y="880" width="150" height="140" as="geometry" />
        </mxCell>
        <mxCell id="jquihusGkQK9FSzFausJ-25" value="상품 정보 등록&lt;br&gt;&lt;b&gt;product/add.jsp&lt;/b&gt;" style="rounded=1;whiteSpace=wrap;html=1;fillColor=#dae8fc;strokeColor=#6c8ebf;" parent="jquihusGkQK9FSzFausJ-24" vertex="1">
          <mxGeometry width="150" height="140" as="geometry" />
        </mxCell>
        <mxCell id="jquihusGkQK9FSzFausJ-26" value="&lt;b&gt;header.jsp&lt;/b&gt;" style="rounded=1;whiteSpace=wrap;html=1;fillColor=#ffe6cc;strokeColor=#d79b00;" parent="jquihusGkQK9FSzFausJ-24" vertex="1">
          <mxGeometry width="150" height="38.18181818181818" as="geometry" />
        </mxCell>
        <mxCell id="jquihusGkQK9FSzFausJ-27" value="&lt;b&gt;footer.jsp&lt;/b&gt;" style="rounded=1;whiteSpace=wrap;html=1;fillColor=#d5e8d4;strokeColor=#82b366;" parent="jquihusGkQK9FSzFausJ-24" vertex="1">
          <mxGeometry y="101.81818181818176" width="150" height="38.18181818181818" as="geometry" />
        </mxCell>
        <mxCell id="jquihusGkQK9FSzFausJ-28" value="" style="group" parent="1" vertex="1" connectable="0">
          <mxGeometry x="1020" y="1050" width="150" height="140" as="geometry" />
        </mxCell>
        <mxCell id="jquihusGkQK9FSzFausJ-29" value="상품 정보 변경&lt;br&gt;&lt;b&gt;product/edit.jsp&lt;/b&gt;" style="rounded=1;whiteSpace=wrap;html=1;fillColor=#dae8fc;strokeColor=#6c8ebf;" parent="jquihusGkQK9FSzFausJ-28" vertex="1">
          <mxGeometry width="150" height="140" as="geometry" />
        </mxCell>
        <mxCell id="jquihusGkQK9FSzFausJ-30" value="&lt;b&gt;header.jsp&lt;/b&gt;" style="rounded=1;whiteSpace=wrap;html=1;fillColor=#ffe6cc;strokeColor=#d79b00;" parent="jquihusGkQK9FSzFausJ-28" vertex="1">
          <mxGeometry width="150" height="38.18181818181818" as="geometry" />
        </mxCell>
        <mxCell id="jquihusGkQK9FSzFausJ-31" value="&lt;b&gt;footer.jsp&lt;/b&gt;" style="rounded=1;whiteSpace=wrap;html=1;fillColor=#d5e8d4;strokeColor=#82b366;" parent="jquihusGkQK9FSzFausJ-28" vertex="1">
          <mxGeometry y="101.81818181818176" width="150" height="38.18181818181818" as="geometry" />
        </mxCell>
        <mxCell id="jquihusGkQK9FSzFausJ-32" value="" style="group" parent="1" vertex="1" connectable="0">
          <mxGeometry x="1030" y="420" width="150" height="140" as="geometry" />
        </mxCell>
        <mxCell id="jquihusGkQK9FSzFausJ-33" value="작은 카테고리 선택?&lt;br&gt;&lt;b&gt;product/detail.jsp&lt;/b&gt;" style="rounded=1;whiteSpace=wrap;html=1;fillColor=#dae8fc;strokeColor=#6c8ebf;" parent="jquihusGkQK9FSzFausJ-32" vertex="1">
          <mxGeometry width="150" height="140" as="geometry" />
        </mxCell>
        <mxCell id="jquihusGkQK9FSzFausJ-34" value="&lt;b&gt;header.jsp&lt;/b&gt;" style="rounded=1;whiteSpace=wrap;html=1;fillColor=#ffe6cc;strokeColor=#d79b00;" parent="jquihusGkQK9FSzFausJ-32" vertex="1">
          <mxGeometry width="150" height="38.18181818181818" as="geometry" />
        </mxCell>
        <mxCell id="jquihusGkQK9FSzFausJ-35" value="&lt;b&gt;footer.jsp&lt;/b&gt;" style="rounded=1;whiteSpace=wrap;html=1;fillColor=#d5e8d4;strokeColor=#82b366;" parent="jquihusGkQK9FSzFausJ-32" vertex="1">
          <mxGeometry y="101.81818181818176" width="150" height="38.18181818181818" as="geometry" />
        </mxCell>
        <mxCell id="jquihusGkQK9FSzFausJ-36" value="" style="group" parent="1" vertex="1" connectable="0">
          <mxGeometry x="770" y="300" width="150" height="140" as="geometry" />
        </mxCell>
        <mxCell id="jquihusGkQK9FSzFausJ-37" value="상품 상세정보&lt;br&gt;&lt;b&gt;product/detail.jsp&lt;/b&gt;" style="rounded=1;whiteSpace=wrap;html=1;fillColor=#dae8fc;strokeColor=#6c8ebf;" parent="jquihusGkQK9FSzFausJ-36" vertex="1">
          <mxGeometry width="150" height="140" as="geometry" />
        </mxCell>
        <mxCell id="jquihusGkQK9FSzFausJ-38" value="&lt;b&gt;header.jsp&lt;/b&gt;" style="rounded=1;whiteSpace=wrap;html=1;fillColor=#ffe6cc;strokeColor=#d79b00;" parent="jquihusGkQK9FSzFausJ-36" vertex="1">
          <mxGeometry width="150" height="38.18181818181818" as="geometry" />
        </mxCell>
        <mxCell id="jquihusGkQK9FSzFausJ-39" value="&lt;b&gt;footer.jsp&lt;/b&gt;" style="rounded=1;whiteSpace=wrap;html=1;fillColor=#d5e8d4;strokeColor=#82b366;" parent="jquihusGkQK9FSzFausJ-36" vertex="1">
          <mxGeometry y="101.81818181818176" width="150" height="38.18181818181818" as="geometry" />
        </mxCell>
        <mxCell id="jquihusGkQK9FSzFausJ-40" value="" style="group" parent="1" vertex="1" connectable="0">
          <mxGeometry x="610" y="540" width="150" height="140" as="geometry" />
        </mxCell>
        <mxCell id="jquihusGkQK9FSzFausJ-41" value="상품 상품명순..?&lt;br&gt;&lt;b&gt;/product/list/popular?.jsp&lt;/b&gt;" style="rounded=1;whiteSpace=wrap;html=1;fillColor=#dae8fc;strokeColor=#6c8ebf;" parent="jquihusGkQK9FSzFausJ-40" vertex="1">
          <mxGeometry width="150" height="140" as="geometry" />
        </mxCell>
        <mxCell id="jquihusGkQK9FSzFausJ-42" value="&lt;b&gt;header.jsp&lt;/b&gt;" style="rounded=1;whiteSpace=wrap;html=1;fillColor=#ffe6cc;strokeColor=#d79b00;" parent="jquihusGkQK9FSzFausJ-40" vertex="1">
          <mxGeometry width="150" height="38.18181818181818" as="geometry" />
        </mxCell>
        <mxCell id="jquihusGkQK9FSzFausJ-43" value="&lt;b&gt;footer.jsp&lt;/b&gt;" style="rounded=1;whiteSpace=wrap;html=1;fillColor=#d5e8d4;strokeColor=#82b366;" parent="jquihusGkQK9FSzFausJ-40" vertex="1">
          <mxGeometry y="101.81818181818176" width="150" height="38.18181818181818" as="geometry" />
        </mxCell>
        <mxCell id="jquihusGkQK9FSzFausJ-44" style="edgeStyle=orthogonalEdgeStyle;rounded=0;orthogonalLoop=1;jettySize=auto;html=1;entryX=1;entryY=0.5;entryDx=0;entryDy=0;" parent="1" source="jquihusGkQK9FSzFausJ-11" target="jquihusGkQK9FSzFausJ-33" edge="1">
          <mxGeometry relative="1" as="geometry" />
        </mxCell>
        <mxCell id="jquihusGkQK9FSzFausJ-45" value="작은건 헤더로&lt;br&gt;" style="whiteSpace=wrap;html=1;align=left;" parent="1" vertex="1">
          <mxGeometry x="1160" y="420" width="170" height="50" as="geometry" />
        </mxCell>
        <mxCell id="jquihusGkQK9FSzFausJ-46" value="" style="group" parent="1" vertex="1" connectable="0">
          <mxGeometry x="1170" y="690" width="150" height="140" as="geometry" />
        </mxCell>
        <mxCell id="jquihusGkQK9FSzFausJ-47" value="상품 검색&lt;br&gt;&lt;b&gt;.jsp&lt;/b&gt;" style="rounded=1;whiteSpace=wrap;html=1;fillColor=#dae8fc;strokeColor=#6c8ebf;" parent="jquihusGkQK9FSzFausJ-46" vertex="1">
          <mxGeometry width="150" height="140" as="geometry" />
        </mxCell>
        <mxCell id="jquihusGkQK9FSzFausJ-48" value="&lt;b&gt;header.jsp&lt;/b&gt;" style="rounded=1;whiteSpace=wrap;html=1;fillColor=#ffe6cc;strokeColor=#d79b00;" parent="jquihusGkQK9FSzFausJ-46" vertex="1">
          <mxGeometry width="150" height="38.18181818181818" as="geometry" />
        </mxCell>
        <mxCell id="jquihusGkQK9FSzFausJ-49" value="&lt;b&gt;footer.jsp&lt;/b&gt;" style="rounded=1;whiteSpace=wrap;html=1;fillColor=#d5e8d4;strokeColor=#82b366;" parent="jquihusGkQK9FSzFausJ-46" vertex="1">
          <mxGeometry y="101.81818181818176" width="150" height="38.18181818181818" as="geometry" />
        </mxCell>
        <mxCell id="PreNc-3xg75UZKo2bmsW-1" value="" style="edgeStyle=orthogonalEdgeStyle;rounded=0;orthogonalLoop=1;jettySize=auto;html=1;" edge="1" parent="1" source="PreNc-3xg75UZKo2bmsW-2" target="PreNc-3xg75UZKo2bmsW-5">
          <mxGeometry relative="1" as="geometry" />
        </mxCell>
        <mxCell id="PreNc-3xg75UZKo2bmsW-2" value="회원가입&lt;br&gt;/member/join" style="rounded=0;whiteSpace=wrap;html=1;" vertex="1" parent="1">
          <mxGeometry x="150" y="-210" width="120" height="60" as="geometry" />
        </mxCell>
        <mxCell id="PreNc-3xg75UZKo2bmsW-3" value="" style="edgeStyle=orthogonalEdgeStyle;rounded=0;orthogonalLoop=1;jettySize=auto;html=1;" edge="1" parent="1" source="PreNc-3xg75UZKo2bmsW-5" target="PreNc-3xg75UZKo2bmsW-7">
          <mxGeometry relative="1" as="geometry" />
        </mxCell>
        <mxCell id="PreNc-3xg75UZKo2bmsW-4" value="" style="edgeStyle=orthogonalEdgeStyle;rounded=0;orthogonalLoop=1;jettySize=auto;html=1;" edge="1" parent="1" source="PreNc-3xg75UZKo2bmsW-5" target="PreNc-3xg75UZKo2bmsW-11">
          <mxGeometry relative="1" as="geometry" />
        </mxCell>
        <mxCell id="PreNc-3xg75UZKo2bmsW-5" value="정보입력" style="rounded=0;whiteSpace=wrap;html=1;" vertex="1" parent="1">
          <mxGeometry x="150" y="-90" width="120" height="60" as="geometry" />
        </mxCell>
        <mxCell id="PreNc-3xg75UZKo2bmsW-6" style="edgeStyle=orthogonalEdgeStyle;rounded=0;orthogonalLoop=1;jettySize=auto;html=1;exitX=1;exitY=0.25;exitDx=0;exitDy=0;entryX=1;entryY=0.5;entryDx=0;entryDy=0;" edge="1" parent="1" source="PreNc-3xg75UZKo2bmsW-7" target="PreNc-3xg75UZKo2bmsW-9">
          <mxGeometry relative="1" as="geometry">
            <Array as="points">
              <mxPoint x="270" y="60" />
              <mxPoint x="470" y="60" />
              <mxPoint x="470" y="-300" />
            </Array>
          </mxGeometry>
        </mxCell>
        <mxCell id="PreNc-3xg75UZKo2bmsW-7" value="회원가입 성공&lt;br&gt;/member/join_success" style="rounded=0;whiteSpace=wrap;html=1;" vertex="1" parent="1">
          <mxGeometry x="150" y="30" width="120" height="60" as="geometry" />
        </mxCell>
        <mxCell id="PreNc-3xg75UZKo2bmsW-8" value="" style="edgeStyle=orthogonalEdgeStyle;rounded=0;orthogonalLoop=1;jettySize=auto;html=1;" edge="1" parent="1" source="PreNc-3xg75UZKo2bmsW-9" target="PreNc-3xg75UZKo2bmsW-2">
          <mxGeometry relative="1" as="geometry" />
        </mxCell>
        <mxCell id="PreNc-3xg75UZKo2bmsW-9" value="메인페이지" style="rounded=0;whiteSpace=wrap;html=1;" vertex="1" parent="1">
          <mxGeometry x="150" y="-330" width="120" height="60" as="geometry" />
        </mxCell>
        <mxCell id="PreNc-3xg75UZKo2bmsW-10" style="edgeStyle=orthogonalEdgeStyle;rounded=0;orthogonalLoop=1;jettySize=auto;html=1;exitX=0.25;exitY=0;exitDx=0;exitDy=0;entryX=1;entryY=0.5;entryDx=0;entryDy=0;" edge="1" parent="1" source="PreNc-3xg75UZKo2bmsW-11" target="PreNc-3xg75UZKo2bmsW-2">
          <mxGeometry relative="1" as="geometry" />
        </mxCell>
        <mxCell id="PreNc-3xg75UZKo2bmsW-11" value="회원가입 실패&lt;br&gt;/member/join_fail" style="rounded=0;whiteSpace=wrap;html=1;" vertex="1" parent="1">
          <mxGeometry x="310" y="-90" width="120" height="60" as="geometry" />
        </mxCell>
        <mxCell id="PreNc-3xg75UZKo2bmsW-12" value="로그인" style="rounded=0;whiteSpace=wrap;html=1;" vertex="1" parent="1">
          <mxGeometry x="740" y="-80" width="120" height="60" as="geometry" />
        </mxCell>
        <mxCell id="PreNc-3xg75UZKo2bmsW-13" value="마이페이지" style="rounded=0;whiteSpace=wrap;html=1;" vertex="1" parent="1">
          <mxGeometry x="740" y="10" width="120" height="60" as="geometry" />
        </mxCell>
      </root>
    </mxGraphModel>
  </diagram>
</mxfile>
